<svg version="1.1" id="Capa_1" xmlns="http://www.w3.org/2000/svg" xmlns:xlink="http://www.w3.org/1999/xlink" x="0px" y="0px" viewBox="0 0 480.079 480.079" style="enable-background:new 0 0 480.079 480.079;" xml:space="preserve"><g><g><path d="M376.047,112.079h-320c-4.418,0-8,3.582-8,8v320c0,4.418,3.582,8,8,8h320c4.418,0,8-3.582,8-8v-320 C384.047,115.66,380.465,112.079,376.047,112.079z M144.047,219.359l20.72,20.72l-20.72,20.72V219.359z M155.327,208.079h41.44 l-20.72,20.72L155.327,208.079z M196.767,272.079h-41.44l20.72-20.72L196.767,272.079z M128.047,432.079h-64v-64h64V432.079z M128.047,352.079h-64v-64h64V352.079z M128.047,272.079h-64v-64h64V272.079z M128.047,192.079h-64v-64h64V192.079z M208.047,432.079h-64v-64h64V432.079z M208.047,352.079h-64v-64h64V352.079z M208.047,260.799l-20.72-20.72l20.72-20.72V260.799z M208.047,192.079h-64v-64h64V192.079z M288.047,432.079h-64v-64h64V432.079z M288.047,352.079h-64v-64h64V352.079z M288.047,272.079h-64v-64h64V272.079z M288.047,192.079h-64v-64h64V192.079z M368.047,432.079h-64v-64h64V432.079z M368.047,352.079h-64v-64h64V352.079z M368.047,272.079h-64v-64h64V272.079z M368.047,192.079h-64v-64h64V192.079z"></path></g></g><g><g><path d="M479.967,423.119l-48-384c-0.485-4.009-3.881-7.029-7.92-7.04h-8.72c-1.858-19.485-19.159-33.774-38.644-31.916 c-16.914,1.613-30.304,15.002-31.916,31.916h-33.44c-2.525-17.768-17.351-31.216-35.28-32c-17.929,0.784-32.755,14.232-35.28,32 h-41.44c-2.525-17.768-17.351-31.216-35.28-32c-17.929,0.784-32.755,14.232-35.28,32h-41.44c-2.525-17.768-17.351-31.216-35.28-32 c-17.929,0.784-32.755,14.232-35.28,32h-8.72c-4.418,0-8,3.582-8,8v432c0,4.418,3.582,8,8,8h416c2.126,0.012,4.17-0.823,5.68-2.32 l48-48C479.455,428.007,480.281,425.559,479.967,423.119z M380.047,16.079c9.117,0.585,16.765,7.094,18.8,16h-37.6 C363.282,23.172,370.93,16.664,380.047,16.079z M276.047,16.079c9.117,0.585,16.765,7.094,18.8,16h-37.6 C259.282,23.172,266.93,16.664,276.047,16.079z M164.047,16.079c9.117,0.585,16.765,7.094,18.8,16h-37.6 C147.282,23.172,154.93,16.664,164.047,16.079z M52.047,16.079c9.117,0.585,16.765,7.094,18.8,16h-37.6 C35.282,23.172,42.93,16.664,52.047,16.079z M416.047,464.079h-400v-416h54.8c-2.035,8.906-9.683,15.415-18.8,16v16 c17.929-0.784,32.755-14.232,35.28-32h95.52c-2.035,8.906-9.683,15.415-18.8,16v16c17.929-0.784,32.755-14.232,35.28-32h95.52 c-2.035,8.906-9.683,15.415-18.8,16v16c17.929-0.784,32.755-14.232,35.28-32h87.52c-2.035,8.906-9.683,15.415-18.8,16v16 c17.929-0.784,32.755-14.232,35.28-32h0.72V464.079z M432.047,452.799v-284.24l32,252.64L432.047,452.799z"></path></g></g><g><g><rect x="88.047" y="152.079" width="16" height="16"></rect></g></g><g><g><rect x="88.047" y="232.079" width="16" height="16"></rect></g></g><g><g><rect x="88.047" y="312.079" width="16" height="16"></rect></g></g><g><g><rect x="88.047" y="392.079" width="16" height="16"></rect></g></g><g><g><rect x="168.047" y="152.079" width="16" height="16"></rect></g></g><g><g><rect x="248.047" y="152.079" width="16" height="16"></rect></g></g><g><g><rect x="248.047" y="232.079" width="16" height="16"></rect></g></g><g><g><rect x="248.047" y="312.079" width="16" height="16"></rect></g></g><g><g><rect x="168.047" y="312.079" width="16" height="16"></rect></g></g><g><g><rect x="168.047" y="392.079" width="16" height="16"></rect></g></g><g><g><rect x="248.047" y="392.079" width="16" height="16"></rect></g></g><g><g><rect x="328.047" y="152.079" width="16" height="16"></rect></g></g><g><g><rect x="328.047" y="232.079" width="16" height="16"></rect></g></g><g><g><rect x="328.047" y="312.079" width="16" height="16"></rect></g></g><g><g><rect x="328.047" y="392.079" width="16" height="16"></rect></g></g></svg>